<svg width="209" height="104" viewBox="0 0 209 104" fill="none" xmlns="http://www.w3.org/2000/svg">
<path fill-rule="evenodd" clip-rule="evenodd" d="M158.296 67.4779C150.749 67.4779 153.231 67.9326 152.654 63.6851C152.255 60.7487 152.452 45.2644 152.452 41.5022C152.452 39.5411 160.943 40.3505 163.126 41.4036C164.652 42.1392 165.802 42.844 166.772 44.1388C171.983 51.0908 171.007 67.4779 158.296 67.4779ZM151.338 38.4626H147.721C147.761 40.2767 148.277 42.0536 148.277 44.8182V63.0567C148.277 70.1883 144.508 69.6886 157.739 69.6886C167.226 69.6886 174.158 63.4349 174.158 53.9378C174.158 47.6625 172.993 43.4712 167.434 40.165C163.175 37.631 157.442 38.4626 151.338 38.4626Z" fill="#020202"/>
<path fill-rule="evenodd" clip-rule="evenodd" d="M49.2088 44.2656H49.7657C49.9553 46.5259 55.0016 54.9569 55.0529 57.2538H43.9216C43.9973 56.3536 44.7365 54.9073 45.1295 54.0319L49.2088 44.2656ZM35.0166 69.4123H39.4691C39.4691 66.3172 39.6606 66.6529 40.9377 63.6858L42.8085 59.4644H56.4445C57.1126 62.3114 59.7839 65.2909 59.7839 69.4123H65.6273C65.4114 68.4919 65.1929 68.2554 64.7406 67.5303L52.9234 41.407C51.3548 38.1681 51.726 37.91 50.0441 37.91C48.9784 37.91 46.504 44.2617 45.9892 45.4898L42.3444 53.4766C40.987 56.1374 40.0411 58.7753 38.7272 61.4909L35.9743 67.3238C35.4931 68.0914 35.0936 68.4932 35.0166 69.4123Z" fill="#020202"/>
<path fill-rule="evenodd" clip-rule="evenodd" d="M123.232 57.2538L128.797 44.2656C129.728 44.9424 133.071 53.1813 133.606 54.4134C135.196 58.0756 136.085 57.2538 123.232 57.2538ZM114.606 69.4123C120.998 69.4123 117.786 69.9898 119.648 65.577C120.098 64.5109 120.557 63.4519 121.042 62.263C121.327 61.562 122.01 59.4644 122.954 59.4644H135.198C136.169 59.4644 136.846 61.6358 137.185 62.4655C137.646 63.593 138.202 64.6121 138.71 65.9258C140.198 69.7716 136.342 69.4123 145.216 69.4123C144.908 68.1018 143.772 66.975 143.184 65.6279L131.44 39.1545C130.605 37.2966 129.038 37.4619 128.232 39.2832L114.606 69.4123Z" fill="#020202"/>
<path fill-rule="evenodd" clip-rule="evenodd" d="M192.246 38.4626H179.167C179.167 39.6444 179.313 39.5921 179.403 40.4387C179.479 41.1671 179.41 41.8387 179.488 42.5658C179.878 46.2201 179.875 61.6691 179.489 65.3117C179.346 66.6653 179.167 68.222 179.167 69.4123H193.081C194.191 69.4123 195.307 70.8128 195.307 66.0969C193.145 66.0969 189.569 67.2016 183.898 67.2016V54.2141C187.306 54.2141 189.817 54.7667 192.803 54.7667C192.832 53.4844 193.259 52.9193 193.359 51.7271L183.898 52.2798V40.6733H190.298C192.075 40.6733 192.738 41.1057 194.194 41.2259C194.554 40.5498 195.23 39.0989 195.307 38.1863C193.896 38.1863 193.791 38.4626 192.246 38.4626Z" fill="#020202"/>
<path fill-rule="evenodd" clip-rule="evenodd" d="M86.7775 53.9378C86.7775 60.9388 90.3808 65.7109 96.4178 68.4062C100.464 70.2125 102.553 69.9649 106.814 69.9649C108.191 69.9649 111.391 69.3496 112.105 68.8642C112.748 68.4258 112.932 67.4982 113.256 66.6901C113.569 65.9075 113.957 65.2497 114.049 64.162C113.025 64.4337 113.197 64.6774 112.422 65.3104C112.002 65.6521 111.264 66.1375 110.772 66.4353C104.749 70.0747 91.7862 67.1755 91.7862 53.9378C91.7862 49.9633 91.8692 46.1359 95.3297 43.0871C98.6697 40.1448 104.625 39.2557 109.129 41.1371C111.485 42.1216 111.765 43.1014 113.213 43.4366C112.194 39.0878 111.719 38.6063 106.544 38.1778C102.629 37.8538 99.6288 38.1432 96.4303 39.4824C90.968 41.7694 86.7775 47.7292 86.7775 53.9378Z" fill="#020202"/>
<path fill-rule="evenodd" clip-rule="evenodd" d="M7.46673 52.2798C7.46673 56.7481 7.47266 60.4946 10.8713 64.098C18.7758 72.4807 31.2289 70.1655 32.8252 68.6179C33.4709 67.9927 34.4314 65.4398 34.4603 64.162C30.8306 66.0689 32.1702 67.7543 23.8852 67.7543C17.346 67.7543 12.1977 60.8493 12.1977 54.2141C12.1977 51.2496 11.9917 49.3702 13.3056 46.748C13.9013 45.5584 14.6399 44.1192 15.6141 43.2367C16.4429 42.4867 18.0662 41.4507 19.2477 41.0417C27.721 38.1099 32.419 43.1171 33.6256 43.4366C33.2754 39.2609 31.3902 38.5567 27.4807 38.2079C20.6736 37.6016 15.2876 38.9212 10.8871 44.0696C9.42639 45.7785 7.46673 49.2931 7.46673 52.2798Z" fill="#020202"/>
<path fill-rule="evenodd" clip-rule="evenodd" d="M67.8536 44.5419C67.8536 51.4736 71.218 52.7521 75.8568 57.3203C81.7615 63.135 78.7407 68.0306 74.5324 68.0306C71.7953 68.0306 68.9035 65.6214 68.6889 63.0566H67.8536C67.6015 64.1339 67.2973 66.468 67.2973 67.7543C77.8632 74.7801 90.3571 64.7016 77.8059 53.1741C74.5989 50.2285 71.4714 48.4275 71.4714 43.4366C71.4714 39.1296 79.3232 38.9447 80.3765 43.4366H81.2111C81.2111 41.7028 81.4896 40.9509 81.4896 39.5679C73.7148 35.4831 67.8536 40.0827 67.8536 44.5419Z" fill="#020202"/>
</svg>
