<svg width="94" height="94" viewBox="0 0 94 94" fill="none" xmlns="http://www.w3.org/2000/svg">
<path fill-rule="evenodd" clip-rule="evenodd" d="M46.5573 1L40.4881 1.51175L34.3456 2.75523L29.8846 4.29085L25.7166 6.19194L21.7677 8.53222L18.1114 11.1647L14.821 14.163L11.8227 17.3805L9.1169 20.8905L6.77662 24.6198L4.8759 28.642L3.26657 32.7371L2.0968 36.9781L1.36548 41.3658L1 45.8997L1.14587 50.4336L1.73095 54.9675L2.82812 59.5744L4.36378 64.035L6.33781 68.2764L8.60515 72.2248L11.3105 75.8812L14.3088 79.2453L17.5993 82.2436L21.1827 84.8761L24.9852 87.2159L29.007 89.1174L33.1751 90.726L37.4898 91.8228L41.9504 92.5541L46.4843 92.8467L46.5573 1Z" stroke="#666666" stroke-width="1.24271" stroke-miterlimit="22.9256"/>
<path fill-rule="evenodd" clip-rule="evenodd" d="M48.9709 92.7734L54.3087 92.2616L59.6473 91.0919L64.1079 89.5563L68.276 87.5815L72.2248 85.3149L75.8811 82.682L79.1716 79.6841L82.1699 76.4662L84.8757 72.9566L87.2155 69.1536L89.117 65.2052L90.726 61.11L91.8957 56.7953L92.6271 52.408L92.9196 47.9471L92.8463 43.4132L92.2616 38.8063L91.1648 34.2728L89.5558 29.5926L87.5084 25.1319L84.949 21.0368L82.0969 17.3072L78.8794 13.8705L75.3694 10.7989L71.4938 8.09347L67.4717 5.82649L63.157 3.99833L58.6967 2.53565L54.0895 1.58512L49.4097 1.073L48.9709 92.7734Z" stroke="#666666" stroke-width="1.24271" stroke-miterlimit="22.9256"/>
<path fill-rule="evenodd" clip-rule="evenodd" d="M16.8683 52.8468L14.3512 57.4159L10.8717 58.4042L14.3806 60.3964L16.5758 64.5467L18.2153 60.3696L22.2658 58.5894L18.1957 57.3562L16.8683 52.8468Z" fill="#666666"/>
<path fill-rule="evenodd" clip-rule="evenodd" d="M39.4642 47.874L34.4714 45.2556L31.3473 39.6838L28.5682 44.9487L23.4496 47.0698L28.276 49.7755L31.0547 55.1867L34.1989 49.7022L39.4642 47.874Z" fill="#666666"/>
<path fill-rule="evenodd" clip-rule="evenodd" d="M52.4802 8.09302C71.114 8.09302 86.2197 25.4853 86.2197 46.9394C86.2197 68.3939 71.114 85.7862 52.4802 85.7862L52.4606 85.7857V8.09342L52.4802 8.09302Z" fill="#666666"/>
</svg>
