<svg width="96" height="96" viewBox="0 0 96 96" fill="none" xmlns="http://www.w3.org/2000/svg">
<path d="M24.167 88.1533V57.2636V30.8602V19.8281H41.8919L42.4803 66.6776H90.7275" stroke="#666666" stroke-width="2.20649" stroke-miterlimit="22.9256"/>
<path d="M92.2718 62.9268H46.6725V66.6776H90.8008" stroke="#666666" stroke-width="0.808819" stroke-miterlimit="22.9256"/>
<path fill-rule="evenodd" clip-rule="evenodd" d="M24.2407 19.8282H41.8919V18.0628L41.6715 17.3276L41.083 16.7391L40.2005 16.3714L39.1706 16.2244H26.962L25.9324 16.3714L25.0495 16.7391L24.4614 17.3276L24.2407 18.0628V19.8282Z" stroke="#666666" stroke-width="2.20649" stroke-miterlimit="22.9256"/>
<path fill-rule="evenodd" clip-rule="evenodd" d="M91.3893 65.1333H46.6725V65.6477H91.1685L91.3893 65.1333Z" fill="#00437C" stroke="#666666" stroke-width="0.999685" stroke-miterlimit="22.9256"/>
<path fill-rule="evenodd" clip-rule="evenodd" d="M47.8491 94.699L52.4091 94.4783L56.7484 93.8898L61.0144 92.8603L65.1329 91.463L69.0311 89.6979L72.7082 87.5648L76.2387 85.1379L79.4747 82.4167L82.4163 79.4747L85.138 76.2387L87.5648 72.7086L89.6976 69.0311L91.463 65.1333L92.8599 61.0144L93.8898 56.7484L94.4783 52.4091L94.699 47.8495L94.4783 43.3632L93.8898 38.9506L92.8599 34.758L91.463 30.6394L89.6976 26.7412L87.5648 22.9904L85.138 19.5337L82.4163 16.2976L79.4747 13.2823L76.2387 10.5611L72.7082 8.13423L69.0311 6.07475L65.1329 4.30934L61.0144 2.91243L56.7484 1.8825L52.4091 1.22072L47.8491 1L43.3632 1.22072L38.9499 1.8825L34.758 2.91243L30.6391 4.30934L26.7412 6.07475L22.9904 8.13423L19.5337 10.5611L16.2976 13.2823L13.282 16.2976L10.5611 19.5337L8.13386 22.9904L6.07438 26.7412L4.30937 30.6394L2.91206 34.758L1.88254 38.9506L1.22035 43.3632L1 47.8495L1.22035 52.4091L1.88254 56.7484L2.91206 61.0144L4.30937 65.1333L6.07438 69.0311L8.13386 72.7086L10.5611 76.2387L13.282 79.4747L16.2976 82.4167L19.5337 85.1379L22.9904 87.5648L26.7412 89.6979L30.6391 91.463L34.758 92.8603L38.9499 93.8898L43.3632 94.4783L47.8491 94.699Z" stroke="#666666" stroke-width="1.24989" stroke-miterlimit="22.9256"/>
<path d="M51.0851 25.4913V35.3465H49.8348V25.4913H51.0851ZM51.0851 39.0239V48.8057H49.8348V39.0239H51.0851ZM51.0851 52.4832V52.9243H49.8348V52.4832H51.0851Z" fill="#666666" stroke="#666666" stroke-width="0.0733228" stroke-miterlimit="22.9256"/>
<path d="M53.9535 54.6893H63.8093V55.94H53.9535V54.6893Z" fill="#666666" stroke="#666666" stroke-width="0.0733228" stroke-miterlimit="22.9256"/>
<path d="M50.4233 21.8872V23.1378" stroke="#666666" stroke-width="1.24989" stroke-miterlimit="22.9256"/>
<path d="M50.4233 54.1008V55.2778H51.6003" stroke="#666666" stroke-width="1.24989" stroke-miterlimit="22.9256"/>
<path d="M67.9279 55.2778H69.1045" stroke="#666666" stroke-width="1.24989" stroke-miterlimit="22.9256"/>
<path fill-rule="evenodd" clip-rule="evenodd" d="M67.192 52.1151L69.1045 55.2778L67.192 58.3668L75.7972 55.2778L67.192 52.1151Z" fill="#666666"/>
</svg>
