<svg width="96" height="96" viewBox="0 0 96 96" fill="none" xmlns="http://www.w3.org/2000/svg">
<path fill-rule="evenodd" clip-rule="evenodd" d="M47.9965 94.6994L52.5565 94.4787L56.8958 93.8902L61.1614 92.8603L65.2803 91.463L69.1781 89.6979L72.8556 87.5652L76.3857 85.1379L79.6221 82.4904L82.5637 79.4751L85.285 76.2391L87.7122 72.7086L89.845 69.0315L91.61 65.1333L93.0073 61.0147L94.0372 56.7488L94.6257 52.4095L94.8461 47.8495L94.6257 43.3632L94.0372 38.9506L93.0073 34.7583L91.61 30.6394L89.845 26.7416L87.7122 22.9908L85.285 19.534L82.5637 16.298L79.6221 13.2823L76.3857 10.5614L72.8556 8.13423L69.1781 6.07475L65.2803 4.30974L61.1614 2.91243L56.8958 1.88287L52.5565 1.22072L47.9965 1L43.5102 1.22072L39.0973 1.88287L34.905 2.91243L30.7865 4.30974L26.8886 6.07475L23.1375 8.13423L19.6811 10.5614L16.4447 13.2823L13.4294 16.298L10.7081 19.534L8.28126 22.9908L6.22179 26.7416L4.45674 30.6394L3.05946 34.7583L2.02954 38.9506L1.36775 43.3632L1.14703 47.8495L1.36775 52.4095L2.02954 56.7488L3.05946 61.0147L4.45674 65.1333L6.22179 69.0315L8.28126 72.7086L10.7081 76.2391L13.4294 79.4751L16.4447 82.4904L19.6811 85.1379L23.1375 87.5652L26.8886 89.6979L30.7865 91.463L34.905 92.8603L39.0973 93.8902L43.5102 94.4787L47.9965 94.6994Z" stroke="#666666" stroke-width="1.24989" stroke-miterlimit="22.9256"/>
<path fill-rule="evenodd" clip-rule="evenodd" d="M58.5875 63.5889L58.0728 59.5437L56.6751 55.9399L49.4675 43.2162L48.4376 42.1862H47.6288H47.5551L42.4807 24.9028H42.0392L40.5683 23.2115L39.024 22.3286L37.4059 21.8142L35.6405 21.5935L33.434 21.3728L27.4771 19.387L23.5789 17.0335L20.4162 14.827L17.7686 12.6942L17.2539 13.1357L16.6654 13.6501L16.1506 14.0915L15.6355 14.6066L17.0331 15.7832L20.1955 18.1367L26.3739 21.9608L29.9773 23.4318L35.3465 24.4618L36.8908 24.6825L38.1414 25.0502L39.0973 25.712L40.0535 27.036L40.2742 27.5508L45.2753 44.3194L40.8623 52.1154L38.2884 44.8346L37.994 43.9516L37.7 42.8484L34.758 37.1851L31.5223 34.4643L27.7712 32.8459L23.6522 32.1104L19.6074 31.9634H4.16273L3.86831 32.6989L3.57425 33.361L3.35353 34.0962L3.13281 34.832H19.6074L24.2407 35.0527L28.5067 36.0819L32.0367 38.3621L34.5373 42.3336L35.5672 45.5697L38.8032 54.6897L38.8765 54.9104L38.9503 55.1307L39.024 55.3515L38.5825 56.087L37.8474 57.852L37.2589 59.6174L36.8908 61.6032L36.8174 63.5889L37.6266 68.8107L39.9798 73.0763L43.4366 76.0183L47.7025 77.0478L51.8944 76.0183L55.3511 73.0763L57.7047 68.8107L58.5875 63.5889Z" fill="#666666"/>
<path fill-rule="evenodd" clip-rule="evenodd" d="M94.3313 47.6287V46.8936L94.2576 46.1581V45.4226L94.1842 44.6871L92.8603 45.0549L91.61 45.2756L90.3598 45.3489L89.1832 45.4226L84.0347 45.5697L79.4014 46.2315L75.2825 47.8495L72.1202 50.7181L70.1344 55.2044L67.4864 65.648L67.4131 66.1632L67.2661 66.7513L65.5744 71.385L63.3679 75.0621L60.5729 78.2248L57.2636 80.7986L53.5861 82.7111L49.5409 83.9613L45.349 84.4028L40.495 83.8143L35.9349 82.27L31.8164 79.7691L28.2859 76.386L25.5647 72.4141L23.7263 67.7808L19.5337 54.4689L19.0189 53.2924L18.1364 52.4095L17.0331 51.8214L15.7829 51.6006H1L1.07334 52.3361V53.0713L1.14705 53.7335L1.22035 54.4689H16.2976L16.7391 54.763L21.0047 68.59L22.7697 73.0763L25.1969 77.1215L28.3596 80.5046L32.0367 83.3729L36.1557 85.4323L40.6416 86.7559L45.349 87.1974L50.056 86.7559L54.616 85.4323L58.7346 83.2258L62.412 80.3576L65.5744 76.7534L68.0749 72.6349L69.8403 68.0015L70.2077 66.3098L72.8556 55.9399L74.694 51.968L78.0037 49.6882L82.7108 48.5854L89.1832 48.2913L90.4331 48.2172L91.6833 48.1439L93.0073 47.9232L94.3313 47.6287Z" fill="#666666"/>
</svg>
