<svg width="95" height="95" viewBox="0 0 95 95" fill="none" xmlns="http://www.w3.org/2000/svg">
<path fill-rule="evenodd" clip-rule="evenodd" d="M43.1206 69.2269V71.2014H51.6763V69.2269H43.1206Z" fill="#666666" stroke="#666666" stroke-width="0.999685" stroke-miterlimit="22.9256"/>
<path fill-rule="evenodd" clip-rule="evenodd" d="M43.1206 64.3275V67.7642H51.6763V64.3275H43.1206Z" fill="#666666" stroke="#666666" stroke-width="0.999685" stroke-miterlimit="22.9256"/>
<path fill-rule="evenodd" clip-rule="evenodd" d="M80.0492 60.3053L78.148 57.892H74.2722V56.8681H75.296L73.3216 54.2357L71.4205 56.8681H72.3711V57.892H51.8225V57.8191V53.2118H56.5027L51.9688 46.5576H70.0311L74.4914 43.6326L77.563 27.1062L78.3673 22.2065L78.9523 17.3804L79.3912 13.6508L78.9523 13.212L76.6124 11.2375L76.5391 11.9689L76.4662 12.6273L76.1007 16.2836L75.5889 20.3787L75.3694 21.7677L74.638 26.6675L72.2977 40.9998L70.0311 43.5593H49.9214L47.3619 39.83L44.8754 43.5593H24.7657L23.7422 43.2668L20.0858 26.6675L19.3545 21.7677L19.2082 20.3787L19.062 19.574L18.989 18.8427L18.8428 18.1114L18.6231 16.2836L18.2577 12.6273L18.1843 11.5301L16.137 13.212L15.4056 13.9433L15.5519 15.1131L15.6248 15.9177L15.7715 17.3804L15.9178 18.4772L16.137 20.0128L16.6487 23.7421L19.5007 41.5116H19.5737L20.2317 43.6326L21.4022 45.1683L22.9379 46.1921L24.7657 46.5576H42.828L38.2941 53.2118H42.901V57.8191H24.0347V56.7223H24.9852L23.0841 54.0898L21.1826 56.7223H22.1332V57.8191H18.1843L17.6726 57.892L15.6248 60.3053L19.5007 84.6564V84.7293L22.8645 87.0696L18.7694 60.8174H42.901V62.8647H51.8225V60.8174H76.9779L72.8828 86.6308L75.7348 84.6564L76.247 84.2176L79.9762 60.8174V60.5245L80.0492 60.3053Z" fill="#666666" stroke="#666666" stroke-width="0.999685" stroke-miterlimit="22.9256"/>
<path fill-rule="evenodd" clip-rule="evenodd" d="M47.5812 94.1627L52.1151 93.9435L56.4294 93.3584L60.6712 92.3345L64.7659 90.9452L68.6415 89.1904L72.2978 87.0697L75.8082 84.6564L79.0253 81.9507L81.9507 79.0257L84.6561 75.8082L87.0697 72.2981L89.19 68.6418L90.9452 64.7659L92.3346 60.6712L93.3584 56.4294L93.9431 52.1151L94.1627 47.5812L93.9431 43.121L93.3584 38.7329L92.3346 34.5649L90.9452 30.4697L89.19 26.5942L87.0697 22.8646L84.6561 19.4279L81.9507 16.2099L79.0253 13.212L75.8082 10.5062L72.2978 8.09341L68.6415 6.04567L64.7659 4.29044L60.6712 2.90146L56.4294 1.8776L52.1151 1.21921L47.5812 1L43.1206 1.21921L38.7329 1.8776L34.5649 2.90146L30.4698 4.29044L26.5942 6.04567L22.8646 8.09341L19.4279 10.5062L16.2103 13.212L13.212 16.2099L10.5063 19.4279L8.09304 22.8646L6.04567 26.5942L4.29048 30.4697L2.90113 34.5649L1.87763 38.7329L1.21924 43.121L1 47.5812L1.21924 52.1151L1.87763 56.4294L2.90113 60.6712L4.29048 64.7659L6.04567 68.6418L8.09304 72.2981L10.5063 75.8082L13.212 79.0257L16.2103 81.9507L19.4279 84.6564L22.8646 87.0697L26.5942 89.1904L30.4698 90.9452L34.5649 92.3345L38.7329 93.3584L43.1206 93.9435L47.5812 94.1627Z" stroke="#666666" stroke-width="1.24271" stroke-miterlimit="22.9256"/>
</svg>
