<svg width="96" height="96" viewBox="0 0 96 96" fill="none" xmlns="http://www.w3.org/2000/svg">
<path fill-rule="evenodd" clip-rule="evenodd" d="M75.1721 46.7946L75.0984 46.0591H31.6319L72.5242 30.026L71.5683 27.6725L71.2743 27.0103L70.3914 27.3784L32.5881 42.2346L62.669 11.8597L60.8303 10.0209L60.6833 9.94722L60.4626 9.6532H59.7271L59.5067 9.87392L59.3593 10.0209L26.9253 42.7494L26.1161 43.1171H26.0428H25.9687L25.1599 43.4849L24.2773 43.5586H23.6889L23.2478 43.6319H23.1004L22.8801 43.7056L22.2916 43.7793L21.7031 43.8526L21.1147 44.5144H21.0413L20.5262 45.0296L20.3058 45.9121L20.4529 46.7213V46.7946V46.8679V46.9416L20.6736 47.7504V47.8978V47.9712L20.7469 48.1186L20.8206 48.633L21.1147 49.0744L21.4828 49.4422L21.5561 49.5155L21.6294 49.6629H21.7031L21.7768 49.7362L21.8501 49.8099H21.9239L22.0709 49.8836H22.1446V49.9569H22.2179H22.2916L22.3653 50.0306H22.5119L22.6593 50.104H22.7326L22.8801 50.1777H22.9534H23.1741H23.3944H23.4686H23.6152L23.8363 50.104H23.9829L24.1303 50.0306H24.2036H24.2773V49.9569H24.3511H24.4244L24.4981 49.8836H24.5714L24.6451 49.8099L24.7921 49.7362L24.9395 49.5896L25.0862 49.4422V49.5155V49.4422L25.2336 49.3688L25.3069 49.2951H75.1721V46.9416V46.7946Z" fill="#666666"/>
<path fill-rule="evenodd" clip-rule="evenodd" d="M77.2312 53.193L76.422 53.0464H20.8206V72.4626L21.0413 72.61L23.4685 74.301V55.6939H73.8481L69.8029 77.4636L70.5384 77.1696L71.0535 76.8752L76.8634 55.6939L77.0105 54.8848L77.2312 53.193Z" fill="#666666"/>
<path fill-rule="evenodd" clip-rule="evenodd" d="M47.9232 94.699L52.4095 94.4787L56.8225 93.8902L61.0884 92.8603L65.1333 91.463L69.1048 89.6979L72.7823 87.5652L76.2387 85.1379L79.5488 82.4904L82.4904 79.4751L85.2116 76.2387L87.6389 72.7086L89.7717 69.0311L91.5367 65.1333L92.934 61.0144L93.9639 56.7488L94.5524 52.4095L94.7727 47.8495L94.5524 43.3632L93.9639 38.9506L92.934 34.758L91.5367 30.6394L89.7717 26.7416L87.6389 22.9908L85.2116 19.534L82.4904 16.2976L79.5488 13.2823L76.2387 10.5611L72.7823 8.13423L69.1048 6.07475L65.1333 4.30971L61.0884 2.91243L56.8225 1.8825L52.4095 1.22072L47.9232 1L43.3632 1.22072L39.0239 1.8825L34.7584 2.91243L30.6398 4.30971L26.7416 6.07475L23.0645 8.13423L19.534 10.5611L16.298 13.2823L13.2827 16.2976L10.5611 19.534L8.20794 22.9908L6.07516 26.7416L4.31011 30.6394L2.91243 34.758L1.8825 38.9506L1.22072 43.3632L1 47.8495L1.22072 52.4095L1.8825 56.7488L2.91243 61.0144L4.31011 65.1333L6.07516 69.0311L8.20794 72.7086L10.5611 76.2387L13.2827 79.4751L16.298 82.4904L19.534 85.1379L23.0645 87.5652L26.7416 89.6979L30.6398 91.463L34.7584 92.8603L39.0239 93.8902L43.3632 94.4787L47.9232 94.699Z" stroke="#666666" stroke-width="1.24989" stroke-miterlimit="22.9256"/>
</svg>
