<svg width="95" height="95" viewBox="0 0 95 95" fill="none" xmlns="http://www.w3.org/2000/svg">
<path d="M80.4888 15.0784L80.5613 52.3343L80.2688 57.8192L79.4645 62.8648L78.0748 67.3988L76.3199 71.5668L74.1263 75.2231L71.5668 78.4406L68.7148 81.2194L65.5702 83.5596L62.2068 85.4611L58.6968 86.9231L54.9671 87.9469L51.2375 88.5324L47.4353 88.7516H47.7274L43.9249 88.5324L40.1956 87.9469L36.5393 86.9231L33.0292 85.4611L29.6655 83.5596L26.5209 81.2194L23.5959 78.4406L21.0364 75.2231L18.8428 71.5668L17.0876 67.3988L15.7715 62.8648L14.8939 57.8192L14.6014 52.3343V15.2991" stroke="#666666" stroke-width="2.48617" stroke-miterlimit="22.9256"/>
<path fill-rule="evenodd" clip-rule="evenodd" d="M47.5812 94.1627L52.1151 93.9435L56.4294 93.3584L60.6712 92.3345L64.7659 90.9452L68.6418 89.1903L72.2982 87.0697L75.8082 84.6564L79.0257 82.024L81.9507 79.0257L84.6564 75.8082L87.0697 72.2981L89.1904 68.6418L90.9452 64.7659L92.3346 60.6712L93.3584 56.4294L93.9435 52.1151L94.1627 47.5812L93.9435 43.1209L93.3584 38.7329L92.3346 34.5648L90.9452 30.4697L89.1904 26.5942L87.0697 22.8646L84.6564 19.4278L81.9507 16.2099L79.0257 13.212L75.8082 10.5062L72.2982 8.09341L68.6418 6.04567L64.7659 4.29044L60.6712 2.90146L56.4294 1.8776L52.1151 1.21921L47.5812 1L43.121 1.21921L38.7329 1.8776L34.5649 2.90146L30.4698 4.29044L26.5942 6.04567L22.8646 8.09341L19.4279 10.5062L16.21 13.212L13.212 16.2099L10.5063 19.4278L8.09344 22.8646L6.04567 26.5942L4.29048 30.4697L2.9015 34.5648L1.87763 38.7329L1.21921 43.1209L1 47.5812L1.21921 52.1151L1.87763 56.4294L2.9015 60.6712L4.29048 64.7659L6.04567 68.6418L8.09344 72.2981L10.5063 75.8082L13.212 79.0257L16.21 82.024L19.4279 84.6564L22.8646 87.0697L26.5942 89.1903L30.4698 90.9452L34.5649 92.3345L38.7329 93.3584L43.121 93.9435L47.5812 94.1627Z" stroke="#666666" stroke-width="1.24271" stroke-miterlimit="22.9256"/>
<path fill-rule="evenodd" clip-rule="evenodd" d="M52.4553 36.9099L49.8754 38.7687L48.2415 13.6904C48.138 13.879 47.4489 24.8949 47.3692 26.1512C47.2365 28.236 47.094 30.3117 46.9493 32.3915C46.9032 33.0526 46.574 38.4588 46.5135 38.6111C46.4092 38.5688 45.9969 38.1512 45.8619 38.0385L43.9646 36.3381L47.881 44.8099L51.3358 38.8655C51.5316 38.5234 51.716 38.2045 51.9077 37.8726C52.0743 37.5839 52.3423 37.1817 52.4553 36.9099Z" fill="#666666"/>
<path fill-rule="evenodd" clip-rule="evenodd" d="M31.028 50.4429L28.4432 53.1426C28.1231 52.9627 27.2137 50.8964 26.9771 50.3227C26.5844 49.371 26.2272 48.2859 25.9339 47.1974C23.9894 39.9777 24.2528 31.4583 25.8757 23.1895C25.4173 24.5474 25.0945 26.0645 24.7831 27.4845C23.8348 31.8041 23.1518 36.0527 22.7728 40.3179C22.4175 44.3174 22.3483 47.8271 22.5766 51.6538L22.8975 55.0977L19.056 55.0826C19.2094 55.3268 24.8405 60.7965 25.5511 61.5184L27.4302 63.3775C27.4764 63.4236 27.5149 63.4629 27.5652 63.5068C27.7235 63.6451 27.544 63.5627 27.7292 63.6088L31.028 50.4429Z" fill="#666666"/>
<path fill-rule="evenodd" clip-rule="evenodd" d="M63.2087 50.9762L65.7939 53.6755C66.1137 53.4956 67.023 51.4293 67.2596 50.8556C67.6523 49.9039 68.0099 48.8188 68.3028 47.7303C70.2474 40.5107 69.9843 31.9916 68.3614 23.7228C68.8198 25.0808 69.1422 26.5975 69.454 28.0175C70.4019 32.3371 71.0849 36.5856 71.464 40.8508C71.8196 44.8507 71.8884 48.36 71.6601 52.1868L71.3393 55.631L75.1808 55.6155C75.0273 55.8597 69.3962 61.3294 68.686 62.0513L66.8069 63.9105C66.7604 63.957 66.7222 63.9959 66.6715 64.0397C66.5132 64.1781 66.6931 64.0961 66.5079 64.1422L63.2087 50.9762Z" fill="#666666"/>
<path fill-rule="evenodd" clip-rule="evenodd" d="M42.0098 64.6653L41.291 63.9143C41.2021 63.9645 40.9489 64.539 40.8831 64.6985C40.7739 64.9631 40.6749 65.2651 40.5933 65.5678C40.0524 67.5755 40.1257 69.9449 40.577 72.2444C40.4493 71.8668 40.3597 71.445 40.2731 71.05C40.0093 69.8489 39.8196 68.667 39.7141 67.481C39.6151 66.3687 39.5958 65.3924 39.6593 64.3285L39.7489 63.3704L38.6804 63.3749C38.7231 63.3069 40.289 61.7856 40.4867 61.5849L41.0094 61.0679C41.0222 61.0551 41.0328 61.0441 41.0468 61.032C41.091 60.9935 41.0407 61.0165 41.0925 61.0037L42.0098 64.6653Z" fill="#666666"/>
<path fill-rule="evenodd" clip-rule="evenodd" d="M53.32 64.5571L54.0389 63.8061C54.1277 63.8564 54.3806 64.4309 54.4463 64.5904C54.5556 64.855 54.655 65.157 54.7366 65.4597C55.2774 67.4674 55.2041 69.8367 54.7528 72.1362C54.8802 71.7586 54.9702 71.3369 55.0567 70.9419C55.3205 69.7408 55.5103 68.5589 55.6157 67.3729C55.7147 66.2605 55.7336 65.2843 55.6701 64.2204L55.5809 63.2623L56.6494 63.2668C56.6067 63.1988 55.0409 61.6775 54.8432 61.4768L54.3205 60.9598C54.3076 60.9469 54.297 60.9359 54.283 60.9239C54.2388 60.8853 54.2887 60.9084 54.2373 60.8955L53.32 64.5571Z" fill="#666666"/>
</svg>
