<svg width="82" height="69" viewBox="0 0 82 69" fill="none" xmlns="http://www.w3.org/2000/svg">
<path fill-rule="evenodd" clip-rule="evenodd" d="M2.44313 65.4957L2.45723 64.4765L79.1037 64.4768L79.1223 66.1638H2.44555L2.44313 65.4957ZM59.989 50.8928L65.8301 50.9019L65.8341 62.0507L59.9979 62.1031L59.989 50.8928ZM47.4727 50.8936L53.3415 50.8944L53.3202 62.0868L47.4642 62.1004L47.4727 50.8936ZM7.00257 54.3756L15.1322 54.2901L15.1342 62.0586L6.63457 62.1015L7.00257 54.3756ZM45.073 62.0868L17.5432 62.0996C17.517 50.7504 17.3809 38.2174 17.5697 26.9975L74.9465 20.22L74.994 62.0884L68.2495 62.1L68.2439 50.7182C68.2515 49.2015 68.198 48.5155 66.5689 48.5159L59.1765 48.5163C57.6239 48.5171 57.5676 49.316 57.5764 50.721L57.5901 62.0507L55.7163 62.1083C55.8403 58.5925 55.7022 54.3907 55.7295 50.7202C55.7412 49.12 55.7336 48.5159 54.0191 48.5159H46.7987C44.4718 48.5159 45.0682 49.8831 45.0682 54.4591C45.0682 57.0006 45.0553 59.5461 45.073 62.0868ZM15.1471 27.3912L15.1338 51.8798L9.18124 51.9104C9.67971 44.359 9.89913 36.75 10.284 29.201C10.6569 21.8922 11.1421 14.1117 11.3736 6.54921H21.3131C21.4 9.19532 22.2709 22.8219 22.0362 24.0658C16.7746 25.377 9.85727 24.2321 11.1642 26.9955C11.7154 28.1611 13.8897 27.3315 15.1471 27.3912ZM53.1454 18.8146L53.3616 20.3902L52.7875 20.515L41.951 21.7264L42.6729 6.54166L52.6075 6.59057L53.1454 18.8146ZM41.9723 2.46751L53.3258 2.49097L53.2892 4.16597L41.9884 4.16915L41.9723 2.46751ZM10.6645 2.46632L22.0156 2.51404L21.9818 4.16437L10.6823 4.16557L10.6645 2.46632ZM56.2437 19.9599C55.8966 20.1711 56.284 20.1555 55.6208 20.08L55.5375 18.5215C55.6361 16.895 55.2077 10.1509 55.0652 7.76768C54.9082 5.13828 55.6889 6.97392 55.7292 4.89052C55.8238 0.00114988 56.0206 0.0735271 53.1603 0.0898316L41.9844 0.0886375C40.6001 0.0790933 39.6551 -0.030662 39.5569 1.47254C39.5013 2.33191 39.4864 4.38985 39.5645 5.22576C39.6595 6.23982 39.9768 6.03184 40.1645 6.49671C40.3875 7.04988 39.6153 20.4566 39.5243 21.986C37.9842 22.3074 25.3829 23.8467 24.5313 23.6813C24.4596 22.3419 23.5851 7.05186 23.8066 6.46768C23.9668 6.04536 24.2237 6.20562 24.3819 5.50532L24.3997 1.1715C24.2547 0.100964 23.5622 0.0826685 22.3925 0.0846569C21.3593 0.0862475 20.3262 0.0910258 19.2926 0.0910258C7.02069 0.0910258 8.28577 -0.976728 8.25396 4.20175C8.23906 6.55796 8.58292 5.82505 8.86517 6.50785C9.20701 7.33421 6.89266 46.9892 6.78556 51.9104C4.32143 51.918 4.69426 52.2178 4.51629 55.9873C4.42167 57.9988 4.3331 59.9812 4.22721 61.9926C1.79167 62.7072 0.0116207 60.724 0.0345709 64.3038C0.0571185 67.799 -0.494093 68.5625 2.09485 68.5578H79.4685C82.0474 68.5621 81.5063 67.7994 81.5288 64.3038C81.5482 61.3372 80.2476 62.1425 77.3974 62.0908C77.4175 59.4686 77.1643 21.2559 77.49 19.9106C79.4182 19.6879 82.8982 19.7714 80.8902 17.2859C79.8812 16.7193 58.9671 20.1027 56.2437 19.9599Z" fill="#3B4043"/>
<path fill-rule="evenodd" clip-rule="evenodd" d="M63.6441 40.817C63.7247 40.9522 63.7573 40.9093 63.8205 41.2167L63.7661 42.531C63.1288 42.5958 62.5534 42.692 62.0582 42.3886L62.0561 40.8182L63.6441 40.817ZM60.3095 38.5873C59.4173 39.0155 59.6419 40.1549 59.646 41.2151C59.6488 41.95 59.5163 43.7407 59.8199 44.3161C60.3929 45.4033 65.4741 44.7718 65.5132 44.7531C66.3752 44.3368 66.1816 43.1776 66.1779 42.2351C66.1634 38.4501 66.5403 38.4286 63.4746 38.4413C62.5413 38.4457 61.0673 38.2234 60.3095 38.5873Z" fill="#3B4043"/>
<path fill-rule="evenodd" clip-rule="evenodd" d="M49.5366 40.815L51.2691 40.8405L51.2007 42.5191L49.5809 42.533L49.5305 41.8943L49.5366 40.815ZM47.7863 38.5992C46.8933 39.0816 47.1248 40.1545 47.1284 41.2151C47.1413 44.68 46.6581 44.9035 49.8925 44.8947C53.3141 44.8856 53.6737 45.3135 53.6588 42.2347C53.6551 41.5229 53.7707 39.692 53.5384 39.1321C53.0258 37.8985 47.9675 38.5014 47.7863 38.5992Z" fill="#3B4043"/>
<path fill-rule="evenodd" clip-rule="evenodd" d="M25.8254 42.8567H37.8594C38.8068 42.8567 39.5855 42.5529 39.5202 41.5774C39.449 40.5216 38.5294 40.4715 37.5207 40.4731L24.9529 40.4739C23.9805 40.5144 23.1752 40.9033 23.4534 42.0025C23.6946 42.9549 24.6887 42.8567 25.8254 42.8567Z" fill="#3B4043"/>
<path fill-rule="evenodd" clip-rule="evenodd" d="M25.8254 46.9316H37.8594C40.003 46.9316 40.4592 44.5436 37.5207 44.548L24.9529 44.5488C23.9805 44.5897 23.1752 44.9783 23.4534 46.0774C23.6946 47.0298 24.6887 46.9316 25.8254 46.9316Z" fill="#3B4043"/>
<path fill-rule="evenodd" clip-rule="evenodd" d="M25.8254 38.7817C29.7221 38.7817 33.7907 38.7817 37.8594 38.7817C40.003 38.7817 40.4592 36.3933 37.5207 36.3977L24.9529 36.3984C23.9805 36.4394 23.1752 36.8279 23.4534 37.9275C23.6946 38.8795 24.6887 38.7817 25.8254 38.7817Z" fill="#3B4043"/>
<path fill-rule="evenodd" clip-rule="evenodd" d="M73.2724 32.2162C73.2724 30.1884 73.7749 26.6285 71.5177 27.5865C70.611 27.971 70.867 29.504 70.8674 30.6879C70.8674 31.7266 70.6182 33.2704 71.413 33.7245C72.6225 34.4157 73.272 33.4191 73.2724 32.2162Z" fill="#3B4043"/>
<path fill-rule="evenodd" clip-rule="evenodd" d="M56.2437 19.96L55.8137 19.9552L55.5375 18.5216L55.6208 20.0801C56.284 20.1556 55.8966 20.1711 56.2437 19.96Z" fill="#3B4043"/>
<path fill-rule="evenodd" clip-rule="evenodd" d="M52.7875 20.5151L53.3616 20.3902L53.1454 18.8146L53.2054 20.1608C53.1668 20.1902 53.1205 20.2435 53.1003 20.2618L52.7875 20.5151Z" fill="#3B4043"/>
</svg>
