<svg width="51" height="72" viewBox="0 0 51 72" fill="none" xmlns="http://www.w3.org/2000/svg">
<path fill-rule="evenodd" clip-rule="evenodd" d="M41.138 13.7546H47.6323V67.2055H41.138V13.7546ZM29.2322 12.6854V13.7853L30.3147 13.7546H33.5615L34.644 13.7462V12.6854V67.2055H29.2322V12.6854ZM16.2435 13.7546H21.6553L20.5732 12.6854L21.1143 13.2198L21.6553 13.7546H22.7379V67.2055H16.2435V13.7546ZM3.25527 13.7546H4.33777H5.42031H8.66706L9.74959 13.7462V12.6854V67.2055H3.25527V13.7546ZM3.25527 4.13317H47.6323V5.20193H5.42031H4.33777H3.25527V4.13317ZM51 71.5689L50.8794 45.8251V0.926025H0.0080712V67.2055L0 68.4236V71.6308L51 71.5689Z" fill="#3B4043"/>
</svg>
