<svg width="93" height="74" viewBox="0 0 93 74" fill="none" xmlns="http://www.w3.org/2000/svg">
<path fill-rule="evenodd" clip-rule="evenodd" d="M77.415 22.9636H85.1565V59.4946H77.415V22.9636ZM54.1906 22.9636H61.9322V59.4946H54.1906V22.9636ZM30.9659 22.9636H38.7075V59.4946H30.9659V22.9636ZM7.74158 22.9636H15.4832V59.4946H7.74158V22.9636ZM72.254 27.2117H74.8343V55.2469H72.254V27.2117ZM64.5124 27.2117H67.9533V55.2469H64.5124V27.2117ZM49.0293 27.2117H51.61V55.2469H49.0293V27.2117ZM41.2881 27.2117H44.7286V55.2469H41.2881V27.2117ZM24.9452 27.2117H28.3856V55.2469H24.9452V27.2117ZM20.6441 55.2469H18.0638V27.2117H20.6441V53.5481V54.3973V55.2469ZM67.9533 13.6182H71.3938V24.6628H67.9533V13.6182ZM21.5043 13.6182H24.9452V24.6628H21.5043V13.6182ZM52.4702 24.6628H51.61V13.6182H64.5124V24.6628L63.6405 24.6665L63.6522 20.4152H52.4702V24.6628ZM5.17972 20.4639L5.1609 21.2644V61.1939L5.19266 62.0637L6.02113 62.0435H18.032L18.0638 57.7954H28.3856V61.1939L28.3898 62.036L29.2459 62.0435H40.4279V60.3442L40.4383 60.426V58.7267L40.4279 58.645V57.7954H52.4702V62.0435H63.6522L64.5329 62.0125L64.5124 61.1939V57.7954H75.6945V62.0435H86.8769L87.7577 62.0125L87.7372 61.1939V21.2644L87.7426 20.4321L86.8769 20.4152H75.6945V24.6628H74.8343V13.6182H90.3174V70.5392H2.58063V13.6182H18.0638V21.2644L18.2323 20.4152H6.02113L5.17972 20.4639ZM41.3947 24.6897L40.4279 24.6628V20.4152H29.2459L29.1355 24.7442L28.4408 24.6897L28.3856 13.6182H41.3425L41.3947 24.6897ZM44.7286 13.6182H48.1695V24.6628H44.7286V23.8132V21.2644V19.5655V18.7159V16.1671V15.3175V13.6182ZM70.534 5.97249H71.3938V7.67173H70.534V5.97249ZM54.1906 5.97249H55.0509V7.67173H54.1906V5.97249ZM37.8473 5.97249H38.7075V7.67173H37.8473V5.97249ZM22.3645 7.67173H21.5043V5.97249H23.2247H22.3645V6.82211V7.67173ZM75.6945 2.57404H76.5547H78.2751H79.1354H75.6945ZM85.1565 2.57404H86.0168H85.5866L89.4576 10.2202H71.3938V9.37055H73.1142L73.5569 8.91603L73.9745 8.52135V5.1229L73.5343 4.68404L73.1142 4.27328L72.7163 3.84804L72.254 3.42366H69.6738L69.2691 3.84268L68.8136 4.27328L68.409 4.67662L67.9533 5.1229V8.52135L68.378 8.94411L68.8136 9.37055H70.534V10.2202H55.0509V9.37055H56.7709L57.1696 8.96227L57.6311 8.52135V5.1229L57.2357 4.7179L56.7709 4.27328L56.4006 3.90626L55.9106 3.42366H53.3304L52.9166 3.8431L52.4702 4.27328L52.0359 4.68651L51.61 5.1229V8.52135L52.0714 8.97795L52.4702 9.37055H54.1906V10.2202H38.7075V9.37055H40.4279L40.8455 8.93379L41.2881 8.52135V5.1229L40.8376 4.65473L40.4279 4.27328L40.0634 3.89058L39.5677 3.42366H36.9874V2.57404H40.4279H85.1565ZM24.9452 2.57404H30.1057H31.8261H34.4068H36.9874V3.42366L36.5352 3.86911L36.1272 4.27328L35.6102 4.78271L35.267 5.1229V8.52135L35.7092 8.90611L36.1272 9.37055H37.8473V10.2202H22.3645V9.37055H24.085L24.5452 8.91272L24.9452 8.52135V5.1229L24.5025 4.67867L24.085 4.27328L23.6745 3.81833L23.2247 3.42366H20.6441L20.2156 3.8398L19.7838 4.27328L19.3985 4.65763L18.9236 5.1229V8.52135L19.3985 8.9763L19.7838 9.37055H21.5043V10.2202H3.44045L6.97581 2.62812L11.182 2.57404H24.9452ZM92.0379 8.52135L88.1251 0.736513L87.7372 0.0256007L4.78598 0L6.02113 0.87522L4.93729 0.107341L0 10.2202V72.2384H0.860225V73.0877H92.8981V10.2202L92.5018 9.42588L92.0379 8.52135L92.0291 11.0801V8.53127L92.0379 8.52135Z" fill="#3B4043"/>
</svg>
