<svg width="56" height="71" viewBox="0 0 56 71" fill="none" xmlns="http://www.w3.org/2000/svg">
<path fill-rule="evenodd" clip-rule="evenodd" d="M31.0256 70.063H1.01807C0.961808 70.0258 0.996051 70.0399 0.867383 69.97C0.139895 69.5743 0.354693 69.5807 0 69.0761V64.9848C0.224557 64.6586 0.157533 64.5556 0.538155 64.2815C1.15312 63.8391 2.98677 64.0102 4.03177 64.0102H29.438C31.781 64.0102 32.0559 64.11 32.0554 66.3242C32.0554 67.0951 32.0745 67.8855 32.0579 68.6542C32.0344 69.7445 31.3759 69.8198 31.0256 70.063Z" fill="#3B4043"/>
<path fill-rule="evenodd" clip-rule="evenodd" d="M23.7331 26.0044C25.0203 26.0044 25.285 25.8007 26.3368 25.6478L23.3554 43.6179C22.7517 43.4441 22.4313 43.0739 20.786 42.6723C19.8569 42.4455 18.8628 42.1946 17.9068 41.9504C17.1441 41.7558 12.5987 40.5366 12.2 40.5924C12.2044 40.1509 14.7689 33.2242 15.1354 32.1788C15.6275 30.7763 16.1456 29.4033 16.6309 27.994L18.1798 23.8414C18.8633 24.2902 19.1001 24.7326 20.4797 25.3206C21.4176 25.7199 22.5252 26.0044 23.7331 26.0044Z" fill="#3B4043"/>
<path fill-rule="evenodd" clip-rule="evenodd" d="M19.5076 46.3804C17.0507 46.0922 15.1172 47.825 14.8584 49.7566C14.5541 52.0298 16.3423 53.8606 18.4831 54.1184C20.9973 54.4205 22.9528 52.6995 23.2086 50.7335C23.5144 48.3804 21.6847 46.6363 19.5076 46.3804ZM11.6515 41.877C12.8198 42.0526 13.9392 42.4124 15.0551 42.6888C16.1891 42.9692 17.3095 43.2614 18.4748 43.5513C21.2224 44.2356 22.8001 44.5722 24.1993 46.2111C27.506 50.0828 25.0746 55.1483 20.7781 56.2509C18.0962 56.9397 15.7082 56.0354 14.219 54.759C13.8036 54.4028 12.6906 53.1242 12.2454 52.6392C12.1417 52.5262 12.0806 52.4826 11.9915 52.3855L8.29051 48.3355C7.64912 47.6086 6.94464 46.8513 6.95295 45.5123C6.96665 43.25 9.05421 41.4873 11.6515 41.877Z" fill="#3B4043"/>
<path fill-rule="evenodd" clip-rule="evenodd" d="M28.2209 57.8989C29.3916 57.8989 29.8021 58.4828 29.7977 59.5495C29.7937 60.5573 29.7957 61.5659 29.7972 62.6036L2.26518 62.5977L2.25931 59.6221C2.2598 58.7106 2.4315 57.8989 3.8033 57.8989H28.2209Z" fill="#3B4043"/>
<path fill-rule="evenodd" clip-rule="evenodd" d="M41.1698 12.0725C41.0979 12.1932 32.0559 18.6984 31.7129 18.8086C31.8269 15.4741 29.3764 12.8325 26.917 11.9386C27.1455 11.7086 29.2736 10.8442 29.5735 10.7185C30.9189 10.1536 37.2417 7.25427 37.6532 7.2157C38.1723 8.83599 38.3983 9.9127 39.913 11.1764C40.4501 11.6242 40.886 11.8334 41.1698 12.0725Z" fill="#3B4043"/>
<path fill-rule="evenodd" clip-rule="evenodd" d="M27.8099 19.1276C28.0653 16.9388 26.3726 15.2033 24.3349 14.97C21.9548 14.6974 20.0414 16.3344 19.8134 18.2238C19.5487 20.4149 21.264 22.1273 23.286 22.3727C25.6583 22.6604 27.5902 21.0106 27.8099 19.1276ZM24.739 12.8116C27.942 13.2731 30.6729 15.9987 30.146 19.4888C29.6949 22.4753 26.6827 25.0797 22.8408 24.5312C19.7234 24.0865 16.9358 21.3473 17.4817 17.834C17.9382 14.8929 20.9318 12.2635 24.739 12.8116Z" fill="#3B4043"/>
<path fill-rule="evenodd" clip-rule="evenodd" d="M45.5797 2.86483C43.3782 2.42789 41.5411 3.90616 41.1913 5.54687C40.7407 7.66036 42.317 9.28202 44.0885 9.63366C46.3336 10.0797 48.1237 8.59097 48.4941 6.95979C48.975 4.8404 47.3757 3.22147 45.5797 2.86483ZM44.1751 0.926025H45.5641C46.1384 1.17739 47.7627 1.17422 49.1599 2.74051C52.5293 6.51922 49.4701 11.6178 44.8033 11.572C41.7275 11.5421 39.2936 9.31831 39.1101 6.56732C38.9453 4.09265 40.6395 1.93831 43.0426 1.19237C43.3684 1.09119 43.8874 1.05761 44.1751 0.926025Z" fill="#3B4043"/>
<path fill-rule="evenodd" clip-rule="evenodd" d="M52.0836 20.4471C51.04 20.5047 50.7093 20.3446 49.6976 20.7048C48.8796 20.9961 48.5939 21.3255 48.0743 21.6518C47.8703 21.4317 43.9839 13.3089 43.9075 12.9346C45.8835 13.0399 47.2328 12.8035 48.7901 11.8892C49.2494 11.6197 49.5767 11.2835 49.9378 11.0793L52.0836 20.4471Z" fill="#3B4043"/>
<path fill-rule="evenodd" clip-rule="evenodd" d="M14.0615 56.4909L5.29053 56.4941C5.26949 54.5843 6.78907 51.4409 8.13935 50.4245C8.41479 50.5624 10.6207 53.0562 11.0595 53.5267C11.7929 54.3126 12.4568 55.107 13.2357 55.8103C13.4729 56.0245 13.925 56.2886 14.0615 56.4909Z" fill="#3B4043"/>
<path fill-rule="evenodd" clip-rule="evenodd" d="M51.7759 21.8631C55.9348 22.4961 54.8737 28.1383 50.8155 27.5294C49.2945 27.3012 47.9995 25.9313 48.2906 24.2094C48.522 22.8405 50.0039 21.5936 51.7759 21.8631Z" fill="#3B4043"/>
<path fill-rule="evenodd" clip-rule="evenodd" d="M19.5522 47.8096C23.0869 48.4684 21.9416 53.435 18.4308 52.6831C17.2039 52.4204 16.0312 51.2852 16.4064 49.7112C16.6794 48.5668 17.9313 47.5074 19.5522 47.8096Z" fill="#3B4043"/>
<path fill-rule="evenodd" clip-rule="evenodd" d="M24.5173 16.4655C27.8647 17.5228 26.0839 21.787 23.0457 20.8858C21.9357 20.5569 20.9729 19.4284 21.3985 18.0264C21.7365 16.9107 23.0726 16.0095 24.5173 16.4655Z" fill="#3B4043"/>
<path fill-rule="evenodd" clip-rule="evenodd" d="M45.4237 4.27955C46.4349 4.5527 47.3689 5.52324 46.9711 6.81865C46.1942 9.34641 41.909 8.35273 42.7168 5.69157C42.9971 4.76867 44.1091 3.92383 45.4237 4.27955Z" fill="#3B4043"/>
<path fill-rule="evenodd" clip-rule="evenodd" d="M49.8307 37.2584C49.2216 38.3996 47.7509 38.5026 48.7206 40.0462C48.9309 40.3815 49.4534 41.102 49.587 41.4273C49.8615 42.0961 49.1168 42.6266 48.5068 42.2922C48.2514 42.152 46.9075 40.2381 46.8845 39.3052C46.8591 38.2757 47.4515 37.675 48.0729 37.0465C48.2221 36.8959 48.2392 36.8859 48.3576 36.7471L48.6829 36.4512C48.9324 36.5914 48.973 36.7094 49.2303 36.8909C49.4334 37.0338 49.6399 37.1082 49.8307 37.2584Z" fill="#3B4043"/>
<path fill-rule="evenodd" clip-rule="evenodd" d="M51.7544 32.8962C54.1462 33.7133 52.77 36.6889 50.636 36.0156C48.4843 35.3368 49.5479 32.1425 51.7544 32.8962Z" fill="#3B4043"/>
<path fill-rule="evenodd" clip-rule="evenodd" d="M55.1486 38.7603V39.6065C54.9666 39.9409 55.1192 39.9518 54.6481 40.6723C54.4099 41.0371 54.2298 41.3243 53.9979 41.691C53.7939 42.0136 53.6085 42.3879 53.1026 42.3888C52.6281 42.3897 52.2284 42.009 52.4206 41.4437C52.5586 41.0376 53.5674 39.8706 53.6246 39.3696C53.7132 38.6001 52.6667 37.8936 52.3086 37.3995C52.494 37.2285 52.6995 37.2117 52.9534 37.0597C53.1971 36.914 53.3091 36.8011 53.5513 36.6667C53.7959 36.841 54.225 37.3587 54.4617 37.6114C54.8996 38.0783 54.8443 38.3224 55.1486 38.7603Z" fill="#3B4043"/>
<path fill-rule="evenodd" clip-rule="evenodd" d="M52.3136 28.9002C52.2842 29.3421 52.2314 29.7572 52.1775 30.1901C52.1345 30.534 52.1125 31.1997 51.9539 31.447C51.2455 31.3853 51.0097 31.4438 50.3781 31.4574L50.0802 28.8344C51.0518 28.9727 51.3111 28.9945 52.3136 28.9002Z" fill="#3B4043"/>
<path fill-rule="evenodd" clip-rule="evenodd" d="M26.7561 56.4905L23.7684 56.4927L25.078 55.3666C25.5232 54.9006 25.7713 54.5857 26.167 53.9795L26.418 54.5276C26.5775 55.0703 26.7957 55.9587 26.7561 56.4905Z" fill="#3B4043"/>
<path fill-rule="evenodd" clip-rule="evenodd" d="M1.01807 70.063H0V69.0762C0.354693 69.5807 0.139895 69.5744 0.867383 69.97C0.996051 70.0399 0.961808 70.0258 1.01807 70.063Z" fill="#3B4043"/>
</svg>
