<svg width="35" height="35" viewBox="0 0 35 35" fill="none" xmlns="http://www.w3.org/2000/svg">
<path d="M17.9459 7.24414C23.1816 8.72061 25.479 10.6194 27.7567 17.055" stroke="#757575"/>
<path d="M18.8378 1C27.4094 3.56753 31.1036 6.4129 34 16.1622" stroke="#757575"/>
<path d="M1.36701 6.87664L4.79273 3.45091C5.16713 3.07652 5.76847 3.05885 6.1642 3.41061L12.7626 9.27582C13.1661 9.63449 13.212 10.2487 12.8664 10.6634L9.54346 14.651C9.24209 15.0126 9.23463 15.5371 9.52531 15.9073C12.8936 20.1983 15.1198 22.7195 19.9598 25.5883C20.3478 25.8182 20.8429 25.7521 21.1618 25.4332L23.4821 23.1129C23.8726 22.7224 24.5058 22.7224 24.8963 23.1129L30.6172 28.8339C31.0078 29.2244 31.0078 29.8575 30.6172 30.2481L27.2763 33.589C27.022 33.8433 26.6439 33.94 26.2976 33.8428C9.83351 29.2241 3.94881 23.6043 1.09162 7.76113C1.03387 7.44088 1.13691 7.10674 1.36701 6.87664Z" stroke="#757575"/>
</svg>
